<svg width="394" height="394" viewBox="0 0 394 394" fill="none" xmlns="http://www.w3.org/2000/svg">
<g clip-path="url(#clip0_627_612)">
<path d="M197 56.9616L210.596 84.3936H183.403L197 56.9616Z" fill="#090E1B"/>
<path d="M270.716 270.716C311.428 230.004 311.428 163.996 270.716 123.284C230.004 82.572 163.996 82.572 123.284 123.284C82.572 163.996 82.572 230.004 123.284 270.716C163.996 311.428 230.004 311.428 270.716 270.716Z" stroke="#090E1B" stroke-width="2" stroke-linecap="round" stroke-linejoin="round"/>
<path opacity="0.2" d="M123.505 123.505L130.323 130.323M263.677 263.677L270.495 270.495M123.505 270.495L130.323 263.677M263.677 130.323L270.495 123.505" stroke="#090E1B" stroke-width="2" stroke-linecap="round" stroke-linejoin="round"/>
<path opacity="0.2" d="M93.0623 197L97 197M297 197L300.938 197M197 300.938L197 297M197 97.5L197 93.0622" stroke="#090E1B" stroke-linecap="round" stroke-linejoin="round"/>
<path opacity="0.2" d="M96.6038 223.901L100.407 222.882M293.593 171.118L297.396 170.099M223.901 297.396L222.882 293.593M171.248 100.89L170.099 96.6038" stroke="#090E1B" stroke-linecap="round" stroke-linejoin="round"/>
<path opacity="0.2" d="M106.987 248.969L110.398 247M283.603 147L287.013 145.031M248.969 287.013L247 283.602M147.25 110.83L145.031 106.987" stroke="#090E1B" stroke-linecap="round" stroke-linejoin="round"/>
<path opacity="0.2" d="M145.031 287.013L147 283.603M247 110.397L248.969 106.987M287.013 248.969L283.603 247M110.831 147.25L106.987 145.031" stroke="#090E1B" stroke-linecap="round" stroke-linejoin="round"/>
<path opacity="0.2" d="M170.099 297.396L171.118 293.593M222.882 100.407L223.901 96.6037M297.396 223.901L293.593 222.882M100.891 171.247L96.604 170.099" stroke="#090E1B" stroke-linecap="round" stroke-linejoin="round"/>
<path d="M197 230.448L180.276 197L197 163.552L213.724 197L197 230.448Z" stroke="#56791D" stroke-width="3" stroke-linecap="round" stroke-linejoin="round"/>
<path opacity="0.4" d="M135.099 254.37L133.713 252.984L143.938 242.76L145.324 244.145L142.453 258.245L142.071 257.863L150.556 249.378L151.942 250.764L141.718 260.989L140.332 259.603L143.202 245.503L143.584 245.885L135.099 254.37Z" fill="#090E1B"/>
<path opacity="0.4" d="M252.656 148.319C252.071 148.903 251.411 149.271 250.676 149.422C249.94 149.572 249.186 149.506 248.413 149.224C247.63 148.931 246.89 148.436 246.193 147.739C245.542 147.088 245.094 146.405 244.849 145.688C244.585 144.972 244.529 144.264 244.679 143.567C244.821 142.86 245.17 142.19 245.726 141.559L247.126 142.959C246.655 143.506 246.447 144.09 246.504 144.712C246.56 145.335 246.876 145.933 247.451 146.508C248.092 147.149 248.757 147.512 249.445 147.597C250.124 147.692 250.718 147.484 251.227 146.975C251.642 146.56 251.859 146.108 251.878 145.617C251.887 145.137 251.708 144.599 251.34 144.005L250.053 141.926C249.403 140.899 249.101 139.946 249.148 139.07C249.177 138.193 249.549 137.396 250.266 136.68C250.878 136.067 251.562 135.685 252.316 135.534C253.061 135.374 253.829 135.444 254.621 135.746C255.404 136.038 256.158 136.548 256.884 137.274C257.572 137.962 258.067 138.683 258.369 139.437C258.652 140.192 258.732 140.932 258.609 141.658C258.468 142.384 258.129 143.053 257.591 143.666L256.177 142.252C256.658 141.752 256.851 141.163 256.757 140.484C256.653 139.814 256.281 139.159 255.64 138.518C254.961 137.839 254.272 137.453 253.575 137.358C252.868 137.255 252.264 137.453 251.765 137.952C251.359 138.358 251.142 138.801 251.114 139.282C251.086 139.763 251.26 140.305 251.637 140.908L252.938 142.973C253.58 143.991 253.881 144.953 253.844 145.858C253.787 146.763 253.391 147.583 252.656 148.319Z" fill="#090E1B"/>
<path opacity="0.4" d="M253.136 260.135L239.871 252.951L241.313 251.508L249.431 255.892C249.77 256.081 250.119 256.288 250.477 256.515C250.836 256.741 251.246 257.01 251.708 257.321C251.378 256.821 251.114 256.397 250.916 256.048C250.727 255.69 250.534 255.336 250.336 254.987L246.023 246.799L247.522 245.3L255.696 249.627C256.054 249.816 256.417 250.019 256.785 250.235C257.153 250.452 257.563 250.712 258.015 251.013C257.676 250.485 257.398 250.047 257.181 249.698C256.973 249.34 256.79 249.015 256.629 248.722L252.245 240.576L253.659 239.162L260.801 252.47L259.472 253.799L248.908 248.185L254.494 258.777L253.136 260.135Z" fill="#090E1B"/>
<path opacity="0.4" d="M134.062 140.667L140.299 134.43L150.524 144.655L144.287 150.891L143.014 149.619L148.501 144.131L148.417 145.319L144.669 141.572L140.299 145.942L139.069 144.711L143.439 140.341L139.62 136.523L140.836 136.466L135.349 141.953L134.062 140.667Z" fill="#090E1B"/>
</g>
<defs>
<clipPath id="clip0_627_612">
<rect width="278" height="278" fill="white" transform="translate(0.424316 197) rotate(-45)"/>
</clipPath>
</defs>
</svg>
